<mxfile host="65bd71144e">
    <diagram id="YclWoKPL826m_fWZnz52" name="PÃ¡gina-1">
        <mxGraphModel dx="662" dy="401" grid="1" gridSize="10" guides="1" tooltips="1" connect="1" arrows="1" fold="1" page="1" pageScale="1" pageWidth="827" pageHeight="1169" math="0" shadow="0">
            <root>
                <mxCell id="0"/>
                <mxCell id="1" parent="0"/>
                <mxCell id="4" value="" style="edgeStyle=none;sketch=1;hachureGap=4;jiggle=2;curveFitting=1;html=1;fontFamily=Architects Daughter;fontSource=https%3A%2F%2Ffonts.googleapis.com%2Fcss%3Ffamily%3DArchitects%2BDaughter;fontSize=16;" edge="1" parent="1" source="2">
                    <mxGeometry relative="1" as="geometry">
                        <mxPoint x="300" y="160" as="targetPoint"/>
                    </mxGeometry>
                </mxCell>
                <mxCell id="2" value="&lt;h3 style=&quot;text-align: justify;&quot;&gt;&lt;font color=&quot;#000000&quot; face=&quot;Times New Roman&quot;&gt;INICIO&lt;/font&gt;&lt;/h3&gt;" style="rounded=1;whiteSpace=wrap;html=1;hachureGap=4;fontFamily=Architects Daughter;fontSource=https%3A%2F%2Ffonts.googleapis.com%2Fcss%3Ffamily%3DArchitects%2BDaughter;fontSize=20;fillColor=#ffcccc;strokeColor=#36393d;fillStyle=auto;" vertex="1" parent="1">
                    <mxGeometry x="240" y="40" width="120" height="60" as="geometry"/>
                </mxCell>
                <mxCell id="3" value="" style="shape=waypoint;sketch=0;size=6;pointerEvents=1;points=[];fillColor=#ffcccc;resizable=0;rotatable=0;perimeter=centerPerimeter;snapToPoint=1;fontSize=20;fontFamily=Architects Daughter;strokeColor=#36393d;rounded=1;hachureGap=4;fontSource=https%3A%2F%2Ffonts.googleapis.com%2Fcss%3Ffamily%3DArchitects%2BDaughter;fillStyle=auto;jiggle=2;curveFitting=1;" vertex="1" parent="1">
                    <mxGeometry x="290" y="200" width="20" height="20" as="geometry"/>
                </mxCell>
                <mxCell id="7" value="" style="edgeStyle=none;sketch=1;hachureGap=4;jiggle=2;curveFitting=1;html=1;fontFamily=Architects Daughter;fontSource=https%3A%2F%2Ffonts.googleapis.com%2Fcss%3Ffamily%3DArchitects%2BDaughter;fontSize=16;" edge="1" parent="1" source="5" target="6">
                    <mxGeometry relative="1" as="geometry"/>
                </mxCell>
                <mxCell id="5" value="&lt;font color=&quot;#000000&quot;&gt;&lt;br&gt;&lt;br&gt;S: x+y&lt;br&gt;R: x-y&lt;br&gt;M: x*y&lt;br&gt;D: x/y&lt;br&gt;De: x//y&lt;br&gt;Mod: x%y&lt;br&gt;P: x**y&lt;br&gt;&lt;br&gt;&lt;br&gt;&lt;/font&gt;" style="whiteSpace=wrap;html=1;aspect=fixed;hachureGap=4;fillStyle=auto;fontFamily=Architects Daughter;fontSource=https%3A%2F%2Ffonts.googleapis.com%2Fcss%3Ffamily%3DArchitects%2BDaughter;fontSize=20;fillColor=#cdeb8b;strokeColor=#36393d;" vertex="1" parent="1">
                    <mxGeometry x="210" y="250" width="200" height="200" as="geometry"/>
                </mxCell>
                <mxCell id="13" value="" style="edgeStyle=none;sketch=1;hachureGap=4;jiggle=2;curveFitting=1;html=1;fontFamily=Times New Roman;fontSize=16;fontColor=#000000;" edge="1" parent="1" source="6" target="10">
                    <mxGeometry relative="1" as="geometry"/>
                </mxCell>
                <mxCell id="6" value="&lt;font color=&quot;#000000&quot;&gt;&lt;br&gt;S,R,M,D,De,&lt;br&gt;Mod,P&lt;br&gt;&lt;br&gt;&lt;/font&gt;" style="shape=document;whiteSpace=wrap;html=1;boundedLbl=1;fontSize=20;fontFamily=Architects Daughter;fillColor=#cce5ff;strokeColor=#36393d;hachureGap=4;fillStyle=auto;fontSource=https%3A%2F%2Ffonts.googleapis.com%2Fcss%3Ffamily%3DArchitects%2BDaughter;" vertex="1" parent="1">
                    <mxGeometry x="250" y="500" width="120" height="100" as="geometry"/>
                </mxCell>
                <mxCell id="10" value="&lt;font face=&quot;Times New Roman&quot; color=&quot;#000000&quot;&gt;FIN&lt;/font&gt;" style="rounded=1;whiteSpace=wrap;html=1;sketch=0;hachureGap=4;jiggle=2;fillStyle=auto;curveFitting=1;fontFamily=Architects Daughter;fontSource=https%3A%2F%2Ffonts.googleapis.com%2Fcss%3Ffamily%3DArchitects%2BDaughter;fontSize=20;fillColor=#ffff88;strokeColor=#36393d;" vertex="1" parent="1">
                    <mxGeometry x="250" y="630" width="120" height="60" as="geometry"/>
                </mxCell>
                <mxCell id="14" value="" style="edgeStyle=none;sketch=1;hachureGap=4;jiggle=2;curveFitting=1;html=1;fontFamily=Times New Roman;fontSize=16;fontColor=#000000;exitX=0.442;exitY=0.983;exitDx=0;exitDy=0;exitPerimeter=0;" edge="1" parent="1" source="12" target="5">
                    <mxGeometry relative="1" as="geometry"/>
                </mxCell>
                <mxCell id="12" value="&lt;font color=&quot;#000000&quot;&gt;x,y&lt;/font&gt;" style="shape=parallelogram;perimeter=parallelogramPerimeter;whiteSpace=wrap;html=1;fixedSize=1;sketch=0;hachureGap=4;jiggle=2;fillStyle=auto;curveFitting=1;fontFamily=Times New Roman;fontSize=20;fillColor=#ffcc99;strokeColor=#36393d;" vertex="1" parent="1">
                    <mxGeometry x="250" y="160" width="120" height="60" as="geometry"/>
                </mxCell>
            </root>
        </mxGraphModel>
    </diagram>
</mxfile>